# xmcd
#
# Track frame offsets:
#  150
#  50897
#  101639
#  262099
#
# Disc length: 3766 seconds
#
# Revision: 0
# Processed by: cddbd v1.5.2PL0 Copyright (c) Steve Scherf et al.
# Submitted via: AltoMP3_Maker 3.0
#
DISCID=390eb404
DTITLE=Various Artist - Sirds pie sirds
DYEAR=1900
DGENRE=
TTITLE0=Sirds pie sirds
TTITLE1=Heart to heart
TTITLE2=Priestera Artura komentars 2008. 03. 09.
TTITLE3=Kunga engelis pasludinaja . . .
EXTD=
EXTT0=
EXTT1=
EXTT2=
EXTT3=
PLAYORDER=
